# xmcd
#
# Track frame offsets:
#	150
#	17245
#	28981
#	48908
#	67070
#	91779
#	106318
#	121339
#	137295
#	158421
#
# Disc length: 2326 seconds
#
# Revision: 0
# Processed by: cddbd v1.5.2PL0 Copyright (c) Steve Scherf et al.
# Submitted via: audiograbber 1.83.01
#
DISCID=7809140a
DTITLE=Times To Square - First Time
DYEAR=2009
DGENRE=Jazz+Funk
TTITLE0=September
TTITLE1=Stagger Lee
TTITLE2=U and Ur Hand
TTITLE3=Fever
TTITLE4=Just Hold Me
TTITLE5=This Is The Life
TTITLE6=Baby Workout
TTITLE7=Rescue Me
TTITLE8=Deeper Underground
TTITLE9=Lithium
EXTD=Webpage: www.times2square.com Recorded/mixed by: Marcellus Allendorf\nReco
EXTD=rded/mixed at: Team 17 Audio, Budenheim, Germany\nMastered by: Marko Schne
EXTD=ider\nMastered at: Skywalk Records, Trierweiler, Germany\nAlbum Design: An
EXTD=dreas Krasky, Jörg Schröder, Kristin Engels\nBand Members:\nMaria Suárez F
EXTD=ernández (vocals]\nKatja Bartels (bass guitar]\nChristian Miculka (guitars
EXTD=]\nAndreas Krasky (drums]\nJörg Schröder (keyboards]\nJörg Cramer (trombon
EXTD=e]\nMarkus Rose (clarinet)
EXTT0=
EXTT1=
EXTT2=
EXTT3=
EXTT4=
EXTT5=
EXTT6=
EXTT7=
EXTT8=
EXTT9=
PLAYORDER=
